<?xml version="1.0" encoding="UTF-8"?>
<svg id="icons" xmlns="http://www.w3.org/2000/svg" width="20" height="20" viewBox="0 0 20 20">
  <g>
    <path d="M17.99999,13.94096c-.39732,.83288-2.0737,1.46412-3.96241,1.46412-1.89553,0-3.57224-.62675-3.96241-1.46416" style="fill: none; stroke: #1d1d1b; stroke-linecap: round; stroke-linejoin: round; stroke-width: 1.1px;"/>
    <ellipse cx="14.03758" cy="11.0068" rx="3.96241" ry="1.86583" style="fill: none; stroke: #1d1d1b; stroke-linecap: round; stroke-linejoin: round; stroke-width: 1.1px;"/>
    <path d="M10.07516,11.0068l-.00003,5.52904c.39017,.83741,2.11339,1.46416,4.00893,1.46416,1.88871,0,3.51862-.63123,3.91594-1.46412v-5.52908" style="fill: none; stroke: #1d1d1b; stroke-linecap: round; stroke-linejoin: round; stroke-width: 1.1px;"/>
  </g>
  <g>
    <line x1="10.87302" y1="5.80002" x2="9.1778" y2="7.48372" style="fill: none; stroke: #1d1d1b; stroke-linecap: round; stroke-linejoin: round; stroke-width: 1.1px;"/>
    <path d="M7.17935,14.5037c-2.94487-.52938-5.17935-3.10475-5.17935-6.20202h0c0-3.48033,2.82135-6.30168,6.30167-6.30168h.00001c2.9016,0,5.34516,1.96108,6.07758,4.63012" style="fill: none; fill-rule: evenodd; stroke: #1d1d1b; stroke-linecap: round; stroke-linejoin: round; stroke-width: 1.1px;"/>
    <circle cx="8.30167" cy="8.30167" r="1.2" style="fill: #1d1d1b;"/>
    <g>
      <line x1="8.30168" y1="2" x2="8.30168" y2="4.02283" style="fill: none; stroke: #1d1d1b; stroke-linecap: round; stroke-linejoin: round; stroke-width: 1.1px;"/>
      <line x1="2" y1="8.4026" x2="4.02283" y2="8.4026" style="fill: none; stroke: #1d1d1b; stroke-linecap: round; stroke-linejoin: round; stroke-width: 1.1px;"/>
      <line x1="4.02283" y1="4.01155" x2="5.45318" y2="5.4419" style="fill: none; stroke: #1d1d1b; stroke-linecap: round; stroke-linejoin: round; stroke-width: 1.1px;"/>
      <line x1="4.02283" y1="12.79366" x2="5.45318" y2="11.3633" style="fill: none; stroke: #1d1d1b; stroke-linecap: round; stroke-linejoin: round; stroke-width: 1.1px;"/>
    </g>
  </g>
</svg>